<?xml version="1.0" encoding="iso-8859-1"?>
<!-- Generator: Adobe Illustrator 19.0.0, SVG Export Plug-In . SVG Version: 6.00 Build 0)  -->
<svg version="1.1" id="Layer_1" xmlns="http://www.w3.org/2000/svg" xmlns:xlink="http://www.w3.org/1999/xlink" x="0px" y="0px"
	 viewBox="0 0 512 512" style="enable-background:new 0 0 512 512;" xml:space="preserve">
<g>
	<g>
		<g>
			<path d="M277.333,93.867H268.8c-2.356,0-4.267,1.91-4.267,4.267v8.533c0,2.356,1.91,4.267,4.267,4.267h8.533
				c2.356,0,4.267-1.91,4.267-4.267v-8.533C281.6,95.777,279.69,93.867,277.333,93.867z"/>
			<path d="M345.6,93.867h-8.533c-2.356,0-4.267,1.91-4.267,4.267v8.533c0,2.356,1.91,4.267,4.267,4.267h8.533
				c2.356,0,4.267-1.91,4.267-4.267v-8.533C349.867,95.777,347.956,93.867,345.6,93.867z"/>
			<path d="M345.6,128h-8.533c-2.356,0-4.267,1.91-4.267,4.267v8.533c0,2.356,1.91,4.267,4.267,4.267h8.533
				c2.356,0,4.267-1.91,4.267-4.267v-8.533C349.867,129.91,347.956,128,345.6,128z"/>
			<path d="M174.933,93.867H166.4c-2.356,0-4.267,1.91-4.267,4.267v8.533c0,2.356,1.91,4.267,4.267,4.267h8.533
				c2.356,0,4.267-1.91,4.267-4.267v-8.533C179.2,95.777,177.29,93.867,174.933,93.867z"/>
			<path d="M384,174.933V64c0-2.356-1.91-4.267-4.267-4.267H132.267c-2.356,0-4.267,1.91-4.267,4.267v110.933
				c0,2.356,1.91,4.267,4.267,4.267h247.467C382.09,179.2,384,177.29,384,174.933z M196.267,145.067c0,4.713-3.82,8.533-8.533,8.533
				c0,4.713-3.82,8.533-8.533,8.533h-17.067c-4.713,0-8.533-3.821-8.533-8.533c-4.713,0-8.533-3.821-8.533-8.533v-51.2
				c0-4.713,3.821-8.533,8.533-8.533c0-4.713,3.82-8.533,8.533-8.533H179.2c4.713,0,8.533,3.82,8.533,8.533
				c4.713,0,8.533,3.82,8.533,8.533V145.067z M227.925,142.592c-3.34,3.325-8.743,3.314-12.068-0.026
				c-2.427-2.438-3.153-6.095-1.841-9.275c0.406-1.047,1.015-2.004,1.792-2.816c3.343-3.322,8.746-3.304,12.068,0.04
				c0.79,0.795,1.416,1.739,1.841,2.776C231.054,136.468,230.347,140.138,227.925,142.592z M227.925,108.459
				c-3.319,3.346-8.722,3.368-12.068,0.05c-1.628-1.614-2.537-3.816-2.524-6.108c0-4.713,3.82-8.533,8.533-8.533
				s8.533,3.82,8.533,8.533C230.413,104.668,229.523,106.848,227.925,108.459z M298.667,145.067c0,4.713-3.82,8.533-8.533,8.533
				c0,4.713-3.82,8.533-8.533,8.533h-17.067c-4.713,0-8.533-3.821-8.533-8.533c-4.713,0-8.533-3.821-8.533-8.533v-51.2
				c0-4.713,3.82-8.533,8.533-8.533c0-4.713,3.82-8.533,8.533-8.533H281.6c4.713,0,8.533,3.82,8.533,8.533
				c4.713,0,8.533,3.82,8.533,8.533V145.067z M366.933,145.067c0,4.713-3.82,8.533-8.533,8.533c0,4.713-3.82,8.533-8.533,8.533
				H332.8c-4.713,0-8.533-3.821-8.533-8.533c-4.713,0-8.533-3.821-8.533-8.533v-51.2c0-4.713,3.82-8.533,8.533-8.533
				c0-4.713,3.821-8.533,8.533-8.533h17.067c4.713,0,8.533,3.82,8.533,8.533c4.713,0,8.533,3.82,8.533,8.533V145.067z"/>
			<path d="M277.333,128H268.8c-2.356,0-4.267,1.91-4.267,4.267v8.533c0,2.356,1.91,4.267,4.267,4.267h8.533
				c2.356,0,4.267-1.91,4.267-4.267v-8.533C281.6,129.91,279.69,128,277.333,128z"/>
			<path d="M443.733,238.933h-128c-9.426,0-17.067,7.641-17.067,17.067v187.733c0,9.426,7.641,17.067,17.067,17.067h128
				c9.426,0,17.067-7.641,17.067-17.067V256C460.8,246.574,453.159,238.933,443.733,238.933z"/>
			<path d="M452.267,0H59.733C26.744,0,0,26.744,0,59.733v392.533C0,485.257,26.744,512,59.733,512H243.2
				c2.356,0,4.267-1.91,4.267-4.267v-307.2c0-2.356-1.91-4.267-4.267-4.267H128c-9.426,0-17.067-7.641-17.067-17.067V59.733
				c0-9.426,7.641-17.067,17.067-17.067h256c9.426,0,17.067,7.641,17.067,17.067V179.2c0,9.426-7.641,17.067-17.067,17.067H268.8
				c-2.356,0-4.267,1.91-4.267,4.267v307.2c0,2.356,1.91,4.267,4.267,4.267h183.467c32.99,0,59.733-26.743,59.733-59.733V59.733
				C512,26.744,485.257,0,452.267,0z M196.267,221.867c18.851,0,34.133,15.282,34.133,34.133v187.733
				c0,18.851-15.282,34.133-34.133,34.133h-128c-18.851,0-34.133-15.282-34.133-34.133V256c0-18.851,15.282-34.133,34.133-34.133
				H196.267z M477.867,443.733c0,18.851-15.282,34.133-34.133,34.133h-128c-18.851,0-34.133-15.282-34.133-34.133V256
				c0-18.851,15.282-34.133,34.133-34.133h128c18.851,0,34.133,15.282,34.133,34.133V443.733z"/>
			<path d="M174.933,128H166.4c-2.356,0-4.267,1.91-4.267,4.267v8.533c0,2.356,1.91,4.267,4.267,4.267h8.533
				c2.356,0,4.267-1.91,4.267-4.267v-8.533C179.2,129.91,177.29,128,174.933,128z"/>
			<path d="M51.2,256v187.733c0,9.426,7.641,17.067,17.067,17.067h128c9.426,0,17.067-7.641,17.067-17.067V256
				c0-9.426-7.641-17.067-17.067-17.067h-128C58.841,238.933,51.2,246.574,51.2,256z"/>
		</g>
	</g>
</g>
<g>
</g>
<g>
</g>
<g>
</g>
<g>
</g>
<g>
</g>
<g>
</g>
<g>
</g>
<g>
</g>
<g>
</g>
<g>
</g>
<g>
</g>
<g>
</g>
<g>
</g>
<g>
</g>
<g>
</g>
</svg>
